<svg id="Layer_1" data-name="Layer 1" xmlns="http://www.w3.org/2000/svg" viewBox="0 0 32 32"><defs><style>.cls-1{fill:#fc3;}.cls-2{fill:#fff91d;}.cls-3{fill:#c6ea57;}.cls-4{fill:none;stroke:#eb0088;stroke-miterlimit:10;}</style></defs><path class="cls-1" d="M10.55,24.21s-.05-1-.05-1.16c0-.45-.06-10.5,4.78-16.68A9.15,9.15,0,0,0,.65,16.56C3.73,24.35,14.13,28.91,14.57,29.1c.15.07,1.08.43,1.08.43s.43-.9.49-1.05a35,35,0,0,0,1.63-4.94,36.47,36.47,0,0,1-6.07.69Z"/><path class="cls-2" d="M29.25,5.08a9.18,9.18,0,0,0-13,.14c-.35.37-.69.75-1,1.15a9,9,0,0,1,2.41,3.44c1.79,4.5,1,9.89.08,13.73,3.77-.75,8.49-2.29,11.62-5.5A9.17,9.17,0,0,0,29.25,5.08Z"/><path class="cls-3" d="M17.69,9.81a9,9,0,0,0-2.41-3.44c-4.84,6.18-4.79,16.23-4.78,16.68,0,.16.05,1.16.05,1.16l1.15,0a36.47,36.47,0,0,0,6.07-.69C18.74,19.7,19.48,14.31,17.69,9.81Z"/><rect class="cls-4" x="-56.69" y="-32.32" width="1170.54" height="816.72"/></svg>