<svg width="460" height="167" viewBox="0 0 460 167" fill="none" xmlns="http://www.w3.org/2000/svg">
<path d="M7.24536 47.3776H13.4848V69.2H42.0654V47.3776H48.3127V96.1696H42.0654V72.2254H13.4848V96.1696H7.24536V47.3776Z" fill="white"/>
<path d="M56.2888 80.0759C56.2888 69.2629 64.3986 62.9527 72.3826 62.9527C80.3666 62.9527 86.6689 67.6676 88.0205 76.7282H62.1432V77.5141C62.1432 87.1012 67.3611 93.152 74.9522 93.152C79.9108 93.152 84.7987 91.156 86.7947 84.2015H88.5313C86.7318 92.6334 81.1996 96.9476 72.7676 96.9476C62.7876 96.9397 56.2888 89.7337 56.2888 80.0759ZM62.3397 74.5751H81.3882C80.8774 67.7541 77.074 64.8544 72.249 64.8544C67.424 64.8544 63.3063 68.1706 62.3397 74.5436V74.5751Z" fill="white"/>
<path d="M93.9379 88.4449C93.9379 80.2723 105.843 77.9541 115.155 77.0504V74.6929C115.155 67.8091 112.963 64.7208 108.138 64.7208C105.309 64.7208 103.501 65.5066 102.472 66.8425C101.183 68.4142 101.898 70.7088 101.898 71.9268C101.923 72.3004 101.869 72.6749 101.739 73.0261C101.609 73.3772 101.407 73.697 101.145 73.9647C100.883 74.2324 100.568 74.4419 100.22 74.5795C99.8716 74.7172 99.4983 74.7799 99.1243 74.7637C97.3248 74.7637 96.1696 73.6006 96.1696 71.6675C96.1696 67.1647 101.254 62.9134 108.523 62.9134C116.31 62.9134 120.884 65.8759 120.821 75.078L120.75 89.883C120.75 92.9791 121.465 94.0714 123.108 94.0714C124.459 94.0714 125.615 93.4271 126.707 91.4939L127.736 92.0754C127.212 93.4895 126.263 94.7066 125.019 95.5593C123.775 96.412 122.298 96.8586 120.79 96.8376C117.701 96.8376 115.289 94.9752 115.289 90.3388V88.5314C113.937 94.4565 109.945 96.9004 104.413 96.9004C98.3778 96.9397 93.9379 93.5135 93.9379 88.4449ZM115.155 84.6494V78.5828C106.786 79.738 100.287 81.7261 100.287 87.4626C100.261 88.3596 100.421 89.2523 100.756 90.0847C101.092 90.9171 101.595 91.6712 102.236 92.2998C102.876 92.9284 103.64 93.4179 104.478 93.7377C105.316 94.0574 106.212 94.2005 107.108 94.1579C110.802 94.1736 115.116 91.7297 115.116 84.6494H115.155Z" fill="white"/>
<path d="M133.072 63.8564H138.864V73.6399C140.435 65.9152 145.15 63.2748 150.769 63.2748H151.288V68.7756H149.158C141.504 68.7756 138.864 71.919 138.864 76.6339V96.201H133.072V63.8564Z" fill="white"/>
<path d="M160.812 89.215V67.0075H153.669V63.8642H160.812V56.3989L166.596 53.7506V63.8564H178.697V66.9997H166.596V89.2779C166.596 93.3328 168.592 94.2286 172.198 94.2286C174.077 94.201 175.949 94.0064 177.794 93.6471V95.7138C174.667 96.4336 171.477 96.8416 168.269 96.9319C163.381 96.9397 160.812 95.3288 160.812 89.215Z" fill="white"/>
<path d="M191.443 71.6439C191.443 56.0688 203.026 46.3481 219.12 46.3481C224.786 46.3481 231.222 47.5111 235.018 49.6957L236.243 62.3083H234.31L230.837 52.399C229.996 49.9551 223.56 49.0514 218.932 49.0514C208.441 49.0514 198.587 54.5522 198.587 70.4259C198.587 84.7122 206.374 94.2365 219.38 94.2365C224.016 94.2365 230.318 93.3406 231.167 90.8888L234.64 80.9796H236.534L235.308 93.5528C231.513 95.7453 224.432 96.9004 218.767 96.9004C202.901 96.9397 191.443 87.2897 191.443 71.6439Z" fill="white"/>
<path d="M246.341 45.9631H252.141V96.1696H246.341V45.9631Z" fill="white"/>
<path d="M266.49 46.0888C267.267 46.0888 268.027 46.3192 268.673 46.751C269.319 47.1827 269.823 47.7964 270.12 48.5143C270.417 49.2323 270.495 50.0223 270.344 50.7845C270.192 51.5467 269.818 52.2468 269.268 52.7963C268.719 53.3458 268.019 53.72 267.256 53.8716C266.494 54.0232 265.704 53.9454 264.986 53.648C264.268 53.3506 263.655 52.847 263.223 52.2009C262.791 51.5547 262.561 50.7951 262.561 50.0179C262.601 48.9889 263.029 48.013 263.757 47.2848C264.485 46.5565 265.461 46.1295 266.49 46.0888ZM263.59 63.8564H269.382V96.1696H263.59V63.8564Z" fill="white"/>
<path d="M280.713 96.1696V63.8564H286.505V72.9955C287.66 65.8524 292.493 62.9527 297.899 62.9527C304.272 62.9527 308.775 66.4968 308.775 75.8324V96.1696H302.984V76.9247C302.984 69.1371 299.699 66.4968 295.063 66.4968C290.686 66.4968 286.505 69.3965 286.505 76.9876V96.1696H280.713Z" fill="white"/>
<path d="M322.614 46.0888C323.391 46.0888 324.15 46.3192 324.797 46.751C325.443 47.1827 325.946 47.7964 326.244 48.5143C326.541 49.2323 326.619 50.0223 326.467 50.7845C326.316 51.5467 325.942 52.2468 325.392 52.7963C324.843 53.3458 324.142 53.72 323.38 53.8716C322.618 54.0232 321.828 53.9454 321.11 53.648C320.392 53.3506 319.778 52.847 319.347 52.2009C318.915 51.5547 318.685 50.7951 318.685 50.0179C318.725 48.9889 319.152 48.013 319.881 47.2848C320.609 46.5565 321.585 46.1295 322.614 46.0888ZM319.714 63.8564H325.506V96.1696H319.714V63.8564Z" fill="white"/>
<path d="M334.519 80.0759C334.519 69.2629 342.377 62.9527 351.383 62.9527C359.359 62.9527 364.129 66.8818 364.129 70.2923C364.129 72.1626 362.966 73.3177 361.489 73.3177C359.43 73.3177 358.463 72.1626 357.819 70.1037C357.112 67.5262 355.76 64.8229 350.676 64.8229C345.01 64.8229 340.373 69.2629 340.373 77.5062C340.373 87.0933 345.521 93.1442 353.12 93.1442C358.078 93.1442 362.84 90.7867 364.703 83.8714H366.439C364.577 92.7591 359.045 96.9397 350.998 96.9397C341.049 96.9397 334.519 89.7337 334.519 80.0759Z" fill="white"/>
<path d="M116.2 109.521L117.426 122.267H115.069L113.591 118.849C111.399 113.764 109.662 112.994 99.4465 112.994H91.9418C90.9831 112.994 90.6609 113.379 90.6609 114.283V131.917H98.8335C102.763 131.917 104.334 131.532 105.269 127.414L105.851 124.774H108.161V142.848H105.851L105.269 140.207C104.366 136.019 102.755 135.705 98.8335 135.705H90.6609V152.207C90.6609 154.714 91.3682 155.421 93.8042 155.617L98.1184 155.94V158.384H75.9738V156.026L78.3313 155.704C80.8459 155.382 81.4746 154.674 81.4746 152.168V115.831C81.4746 113.316 80.8381 112.609 78.3313 112.287L75.9738 111.965V109.647H96.5704L116.2 109.521Z" fill="white"/>
<path d="M116.908 142.156C116.908 132.176 123.925 125.033 134.196 125.033C144.467 125.033 151.484 132.176 151.484 142.156C151.484 152.136 144.412 159.272 134.196 159.272C123.98 159.272 116.908 152.128 116.908 142.156ZM142.4 144.404C142.4 136.616 139.759 128.121 133.756 128.121C129.638 128.121 125.968 131.084 125.968 139.909C125.968 147.696 128.609 156.191 134.659 156.191C138.73 156.183 142.4 153.236 142.4 144.404Z" fill="white"/>
<path d="M188.481 152.899C188.481 154.124 188.866 154.769 191.121 155.256L192.858 155.641V157.763L180.112 158.989V150.879C178.438 156.285 174.965 159.24 169.558 159.24C163.955 159.24 159.641 156.215 159.641 146.95V131.532C159.641 130.306 159.256 129.536 157.001 129.088L155.264 128.766V126.644L168.01 125.292V145.378C168.01 152.396 170.525 154.195 173.739 154.195C176.827 154.195 180.112 152.136 180.112 145.119V131.532C180.112 130.306 179.727 129.536 177.471 129.088L175.735 128.766V126.644L188.481 125.292V152.899Z" fill="white"/>
<path d="M196.457 156.317L198.194 155.995C200.449 155.602 200.834 154.832 200.834 153.543V131.54C200.834 130.314 200.449 129.544 198.194 129.096L196.457 128.774V126.652L209.203 125.3V133.41C210.877 128.004 214.35 125.041 219.757 125.041C225.36 125.041 229.674 128.066 229.674 137.331V153.551C229.674 154.84 230.059 155.61 232.306 156.003L234.051 156.325V158.446H216.928V156.325L218.664 156.003C220.92 155.61 221.305 154.84 221.305 153.551V138.934C221.305 131.917 218.861 130.117 215.639 130.117C212.417 130.117 209.203 132.176 209.203 139.194V153.543C209.203 154.832 209.588 155.602 211.843 155.995L213.58 156.317V158.439H196.457V156.317Z" fill="white"/>
<path d="M237.972 142.235C237.972 132.019 244.667 125.049 253.359 125.049C254.775 125.046 256.178 125.33 257.482 125.882C258.786 126.434 259.966 127.244 260.95 128.263V113.576C260.95 112.35 260.565 111.454 258.309 111.218L255.166 110.833V108.774L269.311 107.352V152.93C269.311 154.156 269.696 154.8 271.951 155.287L273.688 155.672V157.794L260.942 159.02V155.091C259.811 156.374 258.426 157.408 256.874 158.127C255.323 158.847 253.638 159.237 251.929 159.272C244.471 159.272 237.972 153.158 237.972 142.235ZM260.95 153.433V129.858C259.639 128.923 258.056 128.448 256.447 128.506C251.229 128.506 247.308 133.402 247.308 141.865C247.308 149.842 251.166 154.997 256.313 154.997C257.999 155.05 259.647 154.488 260.95 153.417V153.433Z" fill="white"/>
<path d="M304.115 159.272C300.705 159.272 297.546 157.213 297.546 152.647V151.94C296.257 156.702 292.721 159.272 287.637 159.272C281.711 159.272 277.271 155.602 277.271 150.329C277.271 142.801 287.377 139.964 297.287 139.131V135.783C297.287 129.536 295.298 127.54 290.921 127.54C288.792 127.54 286.348 128.058 286.348 129.025C286.348 129.992 287.055 130.95 287.055 132.758C287.055 135.005 285.837 137.001 282.874 137.001C282.34 137.011 281.808 136.91 281.315 136.704C280.821 136.498 280.375 136.192 280.006 135.805C279.637 135.418 279.352 134.958 279.169 134.455C278.987 133.953 278.91 133.417 278.945 132.883C278.945 128.318 285.837 124.97 292.721 124.97C300.768 124.97 305.852 127.155 305.656 137.135L305.404 150.132C305.333 153.614 305.978 155.154 307.762 155.154C309.113 155.154 310.206 154.447 311.298 152.71L312.587 153.614C311.94 155.322 310.777 156.786 309.258 157.8C307.739 158.815 305.941 159.329 304.115 159.272ZM291.432 155.287C293.947 155.287 297.224 153.417 297.224 147.626L297.287 140.805C289.695 141.96 286.67 144.922 286.67 149.362C286.694 152.584 288.399 155.287 291.456 155.287H291.432Z" fill="white"/>
<path d="M318.26 150.195V130.117H312.052V127.351C319.258 127.092 322.865 123.1 323.958 116.216H326.661V126.125H337.348V130.117H326.661V149.425C326.661 153.417 328.397 155.287 331.234 155.287C333.804 155.287 335.871 153.614 337.348 150.455L339.344 151.484C337.089 156.891 333.057 159.272 327.557 159.272C321.639 159.272 318.26 156.058 318.26 150.195Z" fill="white"/>
<path d="M354.66 153.543C354.66 154.832 355.045 155.602 357.3 155.995L359.037 156.317V158.439H341.914V156.317L343.65 155.995C345.906 155.602 346.291 154.832 346.291 153.543V131.54C346.291 130.314 345.906 129.544 343.65 129.096L341.914 128.774V126.652L354.66 125.3V153.543ZM344.491 112.483C344.491 111.395 344.814 110.332 345.418 109.427C346.023 108.523 346.882 107.818 347.887 107.401C348.892 106.985 349.998 106.876 351.065 107.088C352.132 107.301 353.112 107.824 353.882 108.594C354.651 109.363 355.175 110.343 355.387 111.41C355.599 112.477 355.49 113.583 355.074 114.588C354.658 115.594 353.953 116.453 353.048 117.057C352.143 117.662 351.08 117.984 349.992 117.984C348.538 117.97 347.147 117.386 346.118 116.357C345.09 115.329 344.506 113.938 344.491 112.483Z" fill="white"/>
<path d="M363.217 142.156C363.217 132.176 370.235 125.033 380.506 125.033C390.776 125.033 397.794 132.176 397.794 142.156C397.794 152.136 390.721 159.272 380.506 159.272C370.29 159.272 363.217 152.128 363.217 142.156ZM388.71 144.404C388.71 136.616 386.069 128.121 380.066 128.121C375.948 128.121 372.278 131.084 372.278 139.909C372.278 147.696 374.918 156.191 380.969 156.191C385.056 156.183 388.71 153.236 388.71 144.404Z" fill="white"/>
<path d="M402.281 156.317L404.026 155.995C406.273 155.602 406.658 154.832 406.658 153.543V131.54C406.658 130.314 406.273 129.544 404.026 129.096L402.281 128.774V126.652L415.027 125.3V133.41C416.701 128.004 420.182 125.041 425.589 125.041C431.184 125.041 435.498 128.066 435.498 137.331V153.551C435.498 154.84 435.883 155.61 438.138 156.003L439.875 156.325V158.446H422.775V156.325L424.512 156.003C426.767 155.61 427.152 154.84 427.152 153.551V138.934C427.152 131.917 424.709 130.117 421.487 130.117C418.265 130.117 415.051 132.176 415.051 139.194V153.543C415.051 154.832 415.436 155.602 417.691 155.995L419.428 156.317V158.439H402.281V156.317Z" fill="white"/>
<path d="M395.664 65.0744C395.664 65.0744 395.531 62.4104 395.531 61.9939C395.531 60.7916 395.374 34.0499 408.261 17.6104C404.174 13.9345 398.964 11.7489 393.478 11.4088C387.991 11.0687 382.551 12.5941 378.042 15.7372C373.532 18.8802 370.218 23.456 368.638 28.721C367.058 33.9859 367.305 39.6305 369.339 44.7372C377.551 65.4437 405.22 77.6084 406.391 78.1113C406.784 78.2763 409.267 79.2429 409.267 79.2429C409.267 79.2429 410.406 76.8382 410.579 76.4532C412.343 72.1796 413.793 67.783 414.917 63.2984C409.6 64.3611 404.204 64.9762 398.784 65.1373C398.328 65.1451 395.664 65.0744 395.664 65.0744Z" fill="#FFD516"/>
<path d="M445.423 14.1449C440.794 9.62824 434.562 7.13222 428.094 7.20441C421.627 7.2766 415.452 9.91109 410.925 14.53C409.983 15.4979 409.094 16.5157 408.261 17.579C411.083 20.0859 413.279 23.2184 414.673 26.726C419.388 38.7099 417.463 53.0591 414.878 63.267C424.921 61.2946 437.47 57.2083 445.816 48.6742C450.339 44.0414 452.839 37.8026 452.765 31.3282C452.691 24.8539 450.05 18.6735 445.423 14.1449Z" fill="#F2E400"/>
<path opacity="0.5" d="M414.673 26.7574C413.279 23.2499 411.083 20.1173 408.261 17.6104C395.374 34.0499 395.515 60.8309 395.531 61.994C395.531 62.4104 395.664 65.0744 395.664 65.0744C395.664 65.0744 398.328 65.1451 398.745 65.1373C404.178 64.9784 409.587 64.3633 414.917 63.2984C417.463 53.0905 419.428 38.7413 414.673 26.7574Z" fill="#76B72A"/>
</svg>
