<svg width="460" height="167" viewBox="0 0 460 167" fill="none" xmlns="http://www.w3.org/2000/svg">
<path d="M7.24536 47.3774H13.4848V69.1999H42.0654V47.3774H48.3127V96.1695H42.0654V72.2253H13.4848V96.1695H7.24536V47.3774Z" fill="black"/>
<path d="M56.2888 80.0758C56.2888 69.2628 64.3986 62.9526 72.3826 62.9526C80.3666 62.9526 86.6689 67.6676 88.0205 76.7282H62.1432V77.514C62.1432 87.1011 67.3611 93.152 74.9522 93.152C79.9108 93.152 84.7987 91.156 86.7947 84.2014H88.5313C86.7318 92.6334 81.1996 96.9475 72.7676 96.9475C62.7876 96.9397 56.2888 89.7336 56.2888 80.0758ZM62.3397 74.575H81.3882C80.8774 67.754 77.074 64.8543 72.249 64.8543C67.424 64.8543 63.3063 68.1705 62.3397 74.5436V74.575Z" fill="black"/>
<path d="M93.9379 88.4451C93.9379 80.2725 105.843 77.9543 115.155 77.0506V74.6931C115.155 67.8093 112.963 64.721 108.138 64.721C105.309 64.721 103.501 65.5068 102.472 66.8427C101.183 68.4144 101.898 70.709 101.898 71.927C101.923 72.3006 101.869 72.6751 101.739 73.0263C101.609 73.3774 101.407 73.6972 101.145 73.9649C100.883 74.2326 100.568 74.4421 100.22 74.5797C99.8716 74.7174 99.4983 74.7801 99.1243 74.7639C97.3248 74.7639 96.1696 73.6008 96.1696 71.6677C96.1696 67.1649 101.254 62.9136 108.523 62.9136C116.31 62.9136 120.884 65.8761 120.821 75.0782L120.75 89.8832C120.75 92.9793 121.465 94.0716 123.108 94.0716C124.459 94.0716 125.615 93.4273 126.707 91.4941L127.736 92.0756C127.212 93.4897 126.263 94.7068 125.019 95.5595C123.775 96.4122 122.298 96.8587 120.79 96.8378C117.701 96.8378 115.289 94.9753 115.289 90.339V88.5316C113.937 94.4567 109.945 96.9006 104.413 96.9006C98.3778 96.9399 93.9379 93.5137 93.9379 88.4451ZM115.155 84.6496V78.583C106.786 79.7381 100.287 81.7263 100.287 87.4628C100.261 88.3598 100.421 89.2525 100.756 90.0849C101.092 90.9173 101.595 91.6714 102.236 92.3C102.876 92.9286 103.64 93.4181 104.478 93.7379C105.316 94.0576 106.212 94.2007 107.108 94.1581C110.802 94.1738 115.116 91.7299 115.116 84.6496H115.155Z" fill="black"/>
<path d="M133.072 63.8564H138.864V73.64C140.435 65.9153 145.15 63.2749 150.769 63.2749H151.288V68.7757H149.158C141.504 68.7757 138.864 71.919 138.864 76.634V96.2011H133.072V63.8564Z" fill="black"/>
<path d="M160.812 89.2149V67.0074H153.669V63.8641H160.812V56.3987L166.596 53.7505V63.8562H178.697V66.9995H166.596V89.2778C166.596 93.3326 168.592 94.2285 172.198 94.2285C174.077 94.2009 175.949 94.0063 177.794 93.647V95.7137C174.667 96.4334 171.477 96.8414 168.269 96.9317C163.381 96.9396 160.812 95.3286 160.812 89.2149Z" fill="black"/>
<path d="M191.443 71.6439C191.443 56.0688 203.026 46.3481 219.12 46.3481C224.786 46.3481 231.222 47.5112 235.018 49.6958L236.243 62.3083H234.31L230.837 52.399C229.996 49.9551 223.56 49.0514 218.932 49.0514C208.441 49.0514 198.587 54.5522 198.587 70.4259C198.587 84.7123 206.374 94.2365 219.38 94.2365C224.016 94.2365 230.318 93.3407 231.167 90.8889L234.64 80.9796H236.534L235.308 93.5528C231.513 95.7453 224.432 96.9004 218.767 96.9004C202.901 96.9397 191.443 87.2898 191.443 71.6439Z" fill="black"/>
<path d="M246.341 45.9629H252.141V96.1694H246.341V45.9629Z" fill="black"/>
<path d="M266.49 46.0889C267.267 46.0889 268.027 46.3193 268.673 46.751C269.319 47.1828 269.823 47.7964 270.12 48.5144C270.417 49.2323 270.495 50.0224 270.344 50.7845C270.192 51.5467 269.818 52.2468 269.268 52.7963C268.719 53.3458 268.019 53.72 267.256 53.8716C266.494 54.0233 265.704 53.9454 264.986 53.6481C264.268 53.3507 263.655 52.8471 263.223 52.2009C262.791 51.5548 262.561 50.7951 262.561 50.018C262.601 48.989 263.029 48.013 263.757 47.2848C264.485 46.5566 265.461 46.1296 266.49 46.0889ZM263.59 63.8564H269.382V96.1697H263.59V63.8564Z" fill="black"/>
<path d="M280.713 96.1696V63.8563H286.505V72.9955C287.66 65.8523 292.493 62.9526 297.899 62.9526C304.272 62.9526 308.775 66.4967 308.775 75.8324V96.1696H302.984V76.9247C302.984 69.1371 299.699 66.4967 295.063 66.4967C290.686 66.4967 286.505 69.3964 286.505 76.9875V96.1696H280.713Z" fill="black"/>
<path d="M322.614 46.0889C323.391 46.0889 324.15 46.3193 324.797 46.751C325.443 47.1828 325.946 47.7964 326.244 48.5144C326.541 49.2323 326.619 50.0224 326.467 50.7845C326.316 51.5467 325.942 52.2468 325.392 52.7963C324.843 53.3458 324.142 53.72 323.38 53.8716C322.618 54.0233 321.828 53.9454 321.11 53.6481C320.392 53.3507 319.779 52.8471 319.347 52.2009C318.915 51.5548 318.685 50.7951 318.685 50.018C318.725 48.989 319.152 48.013 319.881 47.2848C320.609 46.5566 321.585 46.1296 322.614 46.0889ZM319.714 63.8564H325.506V96.1697H319.714V63.8564Z" fill="black"/>
<path d="M334.519 80.0758C334.519 69.2628 342.377 62.9526 351.383 62.9526C359.359 62.9526 364.129 66.8818 364.129 70.2923C364.129 72.1625 362.966 73.3177 361.489 73.3177C359.43 73.3177 358.463 72.1625 357.819 70.1037C357.112 67.5262 355.76 64.8229 350.676 64.8229C345.01 64.8229 340.373 69.2628 340.373 77.5062C340.373 87.0933 345.521 93.1441 353.12 93.1441C358.078 93.1441 362.84 90.7867 364.703 83.8714H366.439C364.577 92.7591 359.045 96.9397 350.998 96.9397C341.049 96.9397 334.519 89.7337 334.519 80.0758Z" fill="black"/>
<path d="M116.2 109.521L117.426 122.267H115.069L113.591 118.849C111.399 113.764 109.662 112.994 99.4465 112.994H91.9418C90.9831 112.994 90.6609 113.379 90.6609 114.283V131.917H98.8335C102.763 131.917 104.334 131.532 105.269 127.414L105.851 124.774H108.161V142.848H105.851L105.269 140.208C104.366 136.019 102.755 135.705 98.8335 135.705H90.6609V152.207C90.6609 154.714 91.3682 155.421 93.8042 155.618L98.1184 155.94V158.384H75.9738V156.026L78.3313 155.704C80.8459 155.382 81.4746 154.675 81.4746 152.168V115.831C81.4746 113.317 80.8381 112.609 78.3313 112.287L75.9738 111.965V109.647H96.5704L116.2 109.521Z" fill="black"/>
<path d="M116.908 142.156C116.908 132.176 123.925 125.033 134.196 125.033C144.467 125.033 151.484 132.176 151.484 142.156C151.484 152.136 144.412 159.272 134.196 159.272C123.98 159.272 116.908 152.129 116.908 142.156ZM142.4 144.404C142.4 136.616 139.759 128.122 133.756 128.122C129.638 128.122 125.968 131.084 125.968 139.909C125.968 147.696 128.609 156.191 134.659 156.191C138.73 156.183 142.4 153.237 142.4 144.404Z" fill="black"/>
<path d="M188.481 152.899C188.481 154.125 188.866 154.769 191.121 155.256L192.858 155.641V157.763L180.112 158.989V150.879C178.438 156.286 174.965 159.24 169.558 159.24C163.955 159.24 159.641 156.215 159.641 146.95V131.532C159.641 130.306 159.256 129.536 157.001 129.088L155.264 128.766V126.644L168.01 125.292V145.378C168.01 152.396 170.525 154.195 173.739 154.195C176.827 154.195 180.112 152.136 180.112 145.119V131.532C180.112 130.306 179.727 129.536 177.471 129.088L175.735 128.766V126.644L188.481 125.292V152.899Z" fill="black"/>
<path d="M196.457 156.317L198.194 155.995C200.449 155.602 200.834 154.832 200.834 153.543V131.54C200.834 130.314 200.449 129.544 198.194 129.096L196.457 128.774V126.652L209.203 125.3V133.41C210.877 128.004 214.35 125.041 219.757 125.041C225.36 125.041 229.674 128.066 229.674 137.331V153.551C229.674 154.84 230.059 155.61 232.306 156.003L234.051 156.325V158.447H216.928V156.325L218.664 156.003C220.92 155.61 221.305 154.84 221.305 153.551V138.934C221.305 131.917 218.861 130.117 215.639 130.117C212.417 130.117 209.203 132.176 209.203 139.194V153.543C209.203 154.832 209.588 155.602 211.843 155.995L213.58 156.317V158.439H196.457V156.317Z" fill="black"/>
<path d="M237.972 142.235C237.972 132.019 244.667 125.049 253.359 125.049C254.775 125.047 256.178 125.33 257.482 125.882C258.786 126.434 259.966 127.244 260.95 128.263V113.576C260.95 112.35 260.565 111.454 258.309 111.218L255.166 110.833V108.774L269.311 107.352V152.93C269.311 154.156 269.696 154.8 271.951 155.288L273.688 155.673V157.794L260.942 159.02V155.091C259.811 156.374 258.426 157.408 256.874 158.128C255.323 158.847 253.638 159.237 251.929 159.272C244.471 159.272 237.972 153.158 237.972 142.235ZM260.95 153.433V129.858C259.639 128.923 258.056 128.448 256.447 128.507C251.229 128.507 247.308 133.402 247.308 141.866C247.308 149.842 251.166 154.997 256.313 154.997C257.999 155.05 259.647 154.489 260.95 153.417V153.433Z" fill="black"/>
<path d="M304.115 159.272C300.705 159.272 297.546 157.213 297.546 152.647V151.94C296.257 156.702 292.721 159.272 287.637 159.272C281.711 159.272 277.271 155.602 277.271 150.329C277.271 142.801 287.377 139.964 297.287 139.131V135.783C297.287 129.536 295.298 127.54 290.921 127.54C288.792 127.54 286.348 128.059 286.348 129.025C286.348 129.992 287.055 130.95 287.055 132.758C287.055 135.005 285.837 137.001 282.874 137.001C282.34 137.011 281.808 136.91 281.315 136.704C280.821 136.498 280.375 136.192 280.006 135.805C279.637 135.418 279.352 134.958 279.169 134.455C278.987 133.953 278.91 133.417 278.945 132.884C278.945 128.318 285.837 124.97 292.721 124.97C300.768 124.97 305.852 127.155 305.656 137.135L305.404 150.132C305.333 153.614 305.978 155.154 307.762 155.154C309.113 155.154 310.206 154.447 311.298 152.71L312.587 153.614C311.94 155.322 310.777 156.786 309.258 157.8C307.739 158.815 305.941 159.329 304.115 159.272ZM291.432 155.287C293.947 155.287 297.224 153.417 297.224 147.626L297.287 140.805C289.695 141.96 286.67 144.922 286.67 149.362C286.694 152.584 288.399 155.287 291.456 155.287H291.432Z" fill="black"/>
<path d="M318.26 150.196V130.118H312.052V127.351C319.258 127.092 322.865 123.1 323.958 116.216H326.661V126.126H337.348V130.118H326.661V149.425C326.661 153.417 328.397 155.288 331.234 155.288C333.804 155.288 335.871 153.614 337.348 150.455L339.344 151.484C337.089 156.891 333.057 159.272 327.557 159.272C321.639 159.272 318.26 156.058 318.26 150.196Z" fill="black"/>
<path d="M354.66 153.543C354.66 154.831 355.045 155.602 357.3 155.995L359.037 156.317V158.438H341.914V156.317L343.65 155.995C345.906 155.602 346.291 154.831 346.291 153.543V131.54C346.291 130.314 345.906 129.544 343.65 129.096L341.914 128.773V126.652L354.66 125.3V153.543ZM344.491 112.483C344.491 111.395 344.814 110.332 345.418 109.427C346.023 108.523 346.882 107.817 347.887 107.401C348.892 106.985 349.998 106.876 351.065 107.088C352.132 107.3 353.112 107.824 353.882 108.594C354.651 109.363 355.175 110.343 355.387 111.41C355.599 112.477 355.49 113.583 355.074 114.588C354.658 115.593 353.953 116.453 353.048 117.057C352.143 117.661 351.08 117.984 349.992 117.984C348.538 117.97 347.147 117.386 346.118 116.357C345.09 115.329 344.506 113.938 344.491 112.483Z" fill="black"/>
<path d="M363.217 142.156C363.217 132.176 370.235 125.033 380.506 125.033C390.776 125.033 397.794 132.176 397.794 142.156C397.794 152.136 390.721 159.272 380.506 159.272C370.29 159.272 363.217 152.129 363.217 142.156ZM388.71 144.404C388.71 136.616 386.069 128.122 380.066 128.122C375.948 128.122 372.278 131.084 372.278 139.909C372.278 147.696 374.918 156.191 380.969 156.191C385.056 156.183 388.71 153.237 388.71 144.404Z" fill="black"/>
<path d="M402.281 156.317L404.026 155.995C406.273 155.602 406.658 154.832 406.658 153.543V131.54C406.658 130.314 406.273 129.544 404.026 129.096L402.281 128.774V126.652L415.027 125.3V133.41C416.701 128.004 420.182 125.041 425.589 125.041C431.184 125.041 435.498 128.066 435.498 137.331V153.551C435.498 154.84 435.883 155.61 438.138 156.003L439.875 156.325V158.447H422.775V156.325L424.512 156.003C426.767 155.61 427.152 154.84 427.152 153.551V138.934C427.152 131.917 424.708 130.117 421.487 130.117C418.265 130.117 415.051 132.176 415.051 139.194V153.543C415.051 154.832 415.436 155.602 417.691 155.995L419.428 156.317V158.439H402.281V156.317Z" fill="black"/>
<path d="M395.664 65.0746C395.664 65.0746 395.531 62.4107 395.531 61.9942C395.531 60.7918 395.374 34.0501 408.261 17.6106C404.174 13.9347 398.964 11.7491 393.478 11.409C387.991 11.0689 382.551 12.5943 378.042 15.7374C373.532 18.8804 370.218 23.4562 368.638 28.7212C367.058 33.9861 367.305 39.6307 369.339 44.7374C377.551 65.444 405.22 77.6086 406.391 78.1115C406.784 78.2765 409.267 79.2431 409.267 79.2431C409.267 79.2431 410.406 76.8385 410.579 76.4534C412.343 72.1798 413.793 67.7832 414.917 63.2986C409.6 64.3613 404.204 64.9764 398.784 65.1375C398.328 65.1453 395.664 65.0746 395.664 65.0746Z" fill="#FFD516"/>
<path d="M445.423 14.1451C440.794 9.62848 434.562 7.13246 428.094 7.20465C421.627 7.27683 415.452 9.91133 410.925 14.5302C409.983 15.4981 409.094 16.5159 408.261 17.5792C411.083 20.0861 413.279 23.2187 414.673 26.7262C419.388 38.7101 417.463 53.0593 414.878 63.2672C424.921 61.2948 437.47 57.2085 445.816 48.6744C450.339 44.0417 452.839 37.8028 452.765 31.3285C452.691 24.8541 450.05 18.6737 445.423 14.1451Z" fill="#F2E400"/>
<path opacity="0.5" d="M414.673 26.7574C413.279 23.2498 411.083 20.1173 408.261 17.6104C395.374 34.0499 395.515 60.8309 395.531 61.9939C395.531 62.4104 395.664 65.0743 395.664 65.0743C395.664 65.0743 398.328 65.1451 398.745 65.1372C404.178 64.9784 409.587 64.3632 414.917 63.2984C417.463 53.0905 419.428 38.7413 414.673 26.7574Z" fill="#76B72A"/>
</svg>
